<?xml version="1.0" standalone="no"?>
<!DOCTYPE svg PUBLIC "-//W3C//DTD SVG 20010904//EN"
 "http://www.w3.org/TR/2001/REC-SVG-20010904/DTD/svg10.dtd">
<svg version="1.0" xmlns="http://www.w3.org/2000/svg"
 width="500.000000pt" height="500.000000pt" viewBox="0 0 500.000000 500.000000"
 preserveAspectRatio="xMidYMid meet">
<metadata>
Created by potrace 1.11, written by Peter Selinger 2001-2013
</metadata>
<g transform="translate(0.000000,500.000000) scale(0.100000,-0.100000)"
fill="#000000" stroke="none">
<path d="M2456 4904 c-14 -14 -16 -75 -16 -529 0 -454 2 -515 16 -529 19 -20
142 -22 167 -3 14 10 16 43 19 252 l3 240 27 46 c33 56 76 79 151 79 64 0 110
-26 141 -80 19 -32 21 -54 24 -280 3 -284 -2 -270 103 -270 106 0 101 -14 97
299 -4 251 -5 269 -27 325 -33 84 -101 150 -177 172 -109 31 -266 7 -313 -50
-8 -9 -17 -16 -22 -16 -5 0 -9 76 -9 170 0 197 4 190 -104 190 -45 0 -69 -5
-80 -16z"/>
<path d="M800 4415 c-7 -8 -10 -22 -6 -30 3 -8 80 -119 171 -245 104 -144 163
-235 158 -243 -4 -6 -83 -117 -175 -246 -92 -128 -168 -241 -168 -250 0 -32
22 -41 105 -41 53 0 87 5 100 14 11 8 74 91 140 185 66 93 123 170 127 171 3
0 63 -79 133 -175 69 -96 135 -179 145 -185 10 -5 54 -10 98 -10 84 0 109 12
100 48 -3 10 -82 125 -177 256 l-171 237 170 238 c93 131 170 245 170 253 0
30 -24 38 -110 38 -104 0 -91 10 -240 -200 -56 -80 -106 -145 -112 -145 -5 0
-64 77 -131 170 l-122 170 -96 3 c-76 2 -99 0 -109 -13z"/>
<path d="M4060 3561 c-5 -11 -10 -49 -10 -84 0 -87 12 -97 116 -97 49 0 85 5
92 12 7 7 12 42 12 88 0 46 -5 81 -12 88 -8 8 -45 12 -100 12 -76 0 -89 -2
-98 -19z"/>
<path d="M4072 3278 c-17 -17 -17 -749 0 -766 16 -16 160 -16 176 0 17 17 17
749 0 766 -16 16 -160 16 -176 0z"/>
<path d="M742 2188 c-17 -17 -17 -1039 0 -1056 16 -16 160 -16 176 0 7 7 12
23 12 37 l0 24 23 -20 c53 -49 107 -67 202 -68 79 0 97 4 146 28 150 73 226
247 199 459 -25 202 -155 331 -335 332 -86 1 -127 -10 -185 -49 l-50 -34 0
168 c0 116 -4 171 -12 179 -7 7 -42 12 -88 12 -46 0 -81 -5 -88 -12z m473
-471 c61 -34 90 -100 89 -202 -1 -156 -63 -228 -196 -227 -65 1 -129 38 -154
89 -22 46 -31 180 -15 234 14 48 56 98 96 115 48 21 134 17 180 -9z"/>
<path d="M2382 2072 c-9 -6 -12 -33 -10 -98 l3 -89 88 -3 c57 -2 94 1 103 9
18 15 20 159 2 177 -14 14 -165 17 -186 4z"/>
<path d="M2386 1774 c-14 -13 -16 -62 -16 -384 l0 -369 22 -15 c26 -18 129
-22 159 -6 18 10 19 25 19 388 0 281 -3 381 -12 390 -19 19 -153 16 -172 -4z"/>
<path d="M3636 1144 c-13 -12 -16 -41 -16 -145 l0 -129 -51 0 c-81 0 -89 -8
-89 -95 0 -87 8 -95 89 -95 l51 0 0 -188 c0 -223 10 -271 71 -337 53 -57 107
-76 241 -82 135 -7 138 -5 138 93 0 89 -6 94 -115 94 -71 0 -79 2 -106 29
l-29 29 0 181 0 181 104 0 c129 0 136 5 136 95 0 90 -7 95 -136 95 l-104 0 0
135 c0 157 1 155 -104 155 -45 0 -69 -5 -80 -16z"/>
</g>
</svg>
